<mxfile host="app.diagrams.net" modified="2022-11-01T11:17:00.698Z" agent="5.0 (Windows NT 10.0; Win64; x64) AppleWebKit/537.36 (KHTML, like Gecko) Chrome/105.0.0.0 Safari/537.36 OPR/91.0.4516.77" etag="PA8YiIt0aG4pikGnVNZS" version="20.5.1" type="github">
  <diagram id="4l0VnE-pw2lBxwPgpEtc" name="Page-1">
    <mxGraphModel dx="2309" dy="1251" grid="1" gridSize="21" guides="1" tooltips="1" connect="1" arrows="1" fold="1" page="1" pageScale="1" pageWidth="4681" pageHeight="3300" math="0" shadow="1">
      <root>
        <mxCell id="0" />
        <mxCell id="1" parent="0" />
        <mxCell id="eam_SBuWEZHdjYL0IYUG-66" value="Sensor Connections" style="whiteSpace=wrap;html=1;rounded=1;fontFamily=Verdana;fontSize=40;" parent="1" vertex="1">
          <mxGeometry x="1260" width="462" height="126" as="geometry" />
        </mxCell>
        <mxCell id="eam_SBuWEZHdjYL0IYUG-25" value="" style="verticalLabelPosition=bottom;verticalAlign=top;html=1;shape=mxgraph.basic.patternFillRect;fillStyle=hor;step=5;fillStrokeWidth=0.2;fillStrokeColor=#dddddd;" parent="1" vertex="1">
          <mxGeometry x="1534.5" y="1113" width="207" height="672" as="geometry" />
        </mxCell>
        <mxCell id="eam_SBuWEZHdjYL0IYUG-60" value="" style="group" parent="1" vertex="1" connectable="0">
          <mxGeometry x="672" y="798" width="1932" height="1155" as="geometry" />
        </mxCell>
        <mxCell id="eam_SBuWEZHdjYL0IYUG-56" value="" style="group" parent="eam_SBuWEZHdjYL0IYUG-60" vertex="1" connectable="0">
          <mxGeometry y="126" width="1932" height="1029" as="geometry" />
        </mxCell>
        <mxCell id="eam_SBuWEZHdjYL0IYUG-37" value="&lt;pre&gt;&lt;font style=&quot;font-size: 11px;&quot;&gt;Cooling Coil&lt;/font&gt;&lt;/pre&gt;" style="text;html=1;resizable=0;autosize=1;align=center;verticalAlign=middle;points=[];rounded=1;" parent="eam_SBuWEZHdjYL0IYUG-56" vertex="1">
          <mxGeometry x="879.75" y="472.5" width="100" height="50" as="geometry" />
        </mxCell>
        <mxCell id="eam_SBuWEZHdjYL0IYUG-38" value="&lt;pre&gt;&lt;font style=&quot;font-size: 11px;&quot;&gt;Return Air Duct&lt;/font&gt;&lt;/pre&gt;" style="text;html=1;resizable=0;autosize=1;align=center;verticalAlign=middle;points=[];rounded=1;" parent="eam_SBuWEZHdjYL0IYUG-56" vertex="1">
          <mxGeometry x="120.75" y="367.5" width="110" height="50" as="geometry" />
        </mxCell>
        <mxCell id="eam_SBuWEZHdjYL0IYUG-40" value="&lt;pre&gt;&lt;font style=&quot;font-size: 11px;&quot;&gt;Supply Air Duct&lt;/font&gt;&lt;/pre&gt;" style="text;html=1;resizable=0;autosize=1;align=center;verticalAlign=middle;points=[];rounded=1;" parent="eam_SBuWEZHdjYL0IYUG-56" vertex="1">
          <mxGeometry x="1656" y="367.5" width="110" height="50" as="geometry" />
        </mxCell>
        <mxCell id="eam_SBuWEZHdjYL0IYUG-41" value="&lt;pre&gt;&lt;font style=&quot;font-size: 11px;&quot;&gt;Blower&lt;/font&gt;&lt;/pre&gt;" style="text;html=1;resizable=0;autosize=1;align=center;verticalAlign=middle;points=[];rounded=1;" parent="eam_SBuWEZHdjYL0IYUG-56" vertex="1">
          <mxGeometry x="1259.25" y="756" width="60" height="50" as="geometry" />
        </mxCell>
        <mxCell id="eam_SBuWEZHdjYL0IYUG-52" value="&lt;pre&gt;&lt;font style=&quot;font-size: 11px;&quot;&gt;Fresh Air Inlet&lt;/font&gt;&lt;/pre&gt;" style="text;html=1;resizable=0;autosize=1;align=center;verticalAlign=middle;points=[];rounded=1;" parent="eam_SBuWEZHdjYL0IYUG-56" vertex="1">
          <mxGeometry x="534.75" y="42" width="110" height="50" as="geometry" />
        </mxCell>
        <mxCell id="eam_SBuWEZHdjYL0IYUG-80" value="" style="group" parent="eam_SBuWEZHdjYL0IYUG-56" vertex="1" connectable="0">
          <mxGeometry y="63" width="1932" height="966" as="geometry" />
        </mxCell>
        <mxCell id="eam_SBuWEZHdjYL0IYUG-20" value="" style="rounded=0;whiteSpace=wrap;html=1;" parent="eam_SBuWEZHdjYL0IYUG-80" vertex="1">
          <mxGeometry x="431.25" y="126" width="1069.5" height="672" as="geometry" />
        </mxCell>
        <mxCell id="eam_SBuWEZHdjYL0IYUG-21" value="" style="verticalLabelPosition=bottom;verticalAlign=top;html=1;shape=mxgraph.basic.patternFillRect;fillStyle=diag;step=5;fillStrokeWidth=0.2;fillStrokeColor=#dddddd;" parent="eam_SBuWEZHdjYL0IYUG-80" vertex="1">
          <mxGeometry y="294" width="431.25" height="336" as="geometry" />
        </mxCell>
        <mxCell id="eam_SBuWEZHdjYL0IYUG-22" value="" style="shape=singleArrow;whiteSpace=wrap;html=1;" parent="eam_SBuWEZHdjYL0IYUG-80" vertex="1">
          <mxGeometry x="155.25" y="420" width="120.75" height="84" as="geometry" />
        </mxCell>
        <mxCell id="eam_SBuWEZHdjYL0IYUG-23" value="" style="verticalLabelPosition=bottom;verticalAlign=top;html=1;shape=mxgraph.basic.patternFillRect;fillStyle=diag;step=5;fillStrokeWidth=0.2;fillStrokeColor=#dddddd;" parent="eam_SBuWEZHdjYL0IYUG-80" vertex="1">
          <mxGeometry x="1500.75" y="294" width="431.25" height="336" as="geometry" />
        </mxCell>
        <mxCell id="eam_SBuWEZHdjYL0IYUG-24" value="" style="shape=singleArrow;whiteSpace=wrap;html=1;" parent="eam_SBuWEZHdjYL0IYUG-80" vertex="1">
          <mxGeometry x="1656" y="420" width="120.75" height="84" as="geometry" />
        </mxCell>
        <mxCell id="eam_SBuWEZHdjYL0IYUG-46" style="edgeStyle=orthogonalEdgeStyle;rounded=0;orthogonalLoop=1;jettySize=auto;html=1;exitX=0.25;exitY=1;exitDx=0;exitDy=0;exitPerimeter=0;fontFamily=Verdana;fontSize=11;" parent="eam_SBuWEZHdjYL0IYUG-80" source="eam_SBuWEZHdjYL0IYUG-25" edge="1">
          <mxGeometry relative="1" as="geometry">
            <mxPoint x="914.25" y="966" as="targetPoint" />
          </mxGeometry>
        </mxCell>
        <mxCell id="eam_SBuWEZHdjYL0IYUG-28" value="" style="shape=mxgraph.pid.pumps.centrifugal_pump_1;html=1;pointerEvents=1;align=center;verticalLabelPosition=bottom;verticalAlign=top;dashed=0;" parent="eam_SBuWEZHdjYL0IYUG-80" vertex="1">
          <mxGeometry x="1173" y="420" width="276" height="273" as="geometry" />
        </mxCell>
        <mxCell id="eam_SBuWEZHdjYL0IYUG-47" value="" style="endArrow=classic;html=1;rounded=0;fontFamily=Verdana;fontSize=11;" parent="eam_SBuWEZHdjYL0IYUG-80" edge="1">
          <mxGeometry width="50" height="50" relative="1" as="geometry">
            <mxPoint x="1017.75" y="966" as="sourcePoint" />
            <mxPoint x="1017.75" y="798" as="targetPoint" />
          </mxGeometry>
        </mxCell>
        <mxCell id="eam_SBuWEZHdjYL0IYUG-48" value="" style="rounded=0;whiteSpace=wrap;html=1;fontFamily=Verdana;fontSize=11;" parent="eam_SBuWEZHdjYL0IYUG-80" vertex="1">
          <mxGeometry x="517.5" width="207" height="126" as="geometry" />
        </mxCell>
        <mxCell id="eam_SBuWEZHdjYL0IYUG-78" value="" style="rounded=0;whiteSpace=wrap;html=1;labelBorderColor=default;fontFamily=Verdana;fontSize=26;" parent="eam_SBuWEZHdjYL0IYUG-80" vertex="1">
          <mxGeometry x="861" y="126" width="210" height="672" as="geometry" />
        </mxCell>
        <mxCell id="eam_SBuWEZHdjYL0IYUG-79" style="edgeStyle=orthogonalEdgeStyle;rounded=0;orthogonalLoop=1;jettySize=auto;html=1;fontFamily=Verdana;fontSize=26;" parent="eam_SBuWEZHdjYL0IYUG-80" source="eam_SBuWEZHdjYL0IYUG-78" target="eam_SBuWEZHdjYL0IYUG-20" edge="1">
          <mxGeometry relative="1" as="geometry" />
        </mxCell>
        <mxCell id="eam_SBuWEZHdjYL0IYUG-68" style="edgeStyle=orthogonalEdgeStyle;rounded=0;orthogonalLoop=1;jettySize=auto;html=1;exitX=0.5;exitY=1;exitDx=0;exitDy=0;fontFamily=Verdana;fontSize=40;" parent="eam_SBuWEZHdjYL0IYUG-80" edge="1">
          <mxGeometry relative="1" as="geometry">
            <mxPoint x="1068.07" y="294" as="targetPoint" />
            <Array as="points">
              <mxPoint x="1808.0700000000002" y="63" />
              <mxPoint x="1131.07" y="63" />
              <mxPoint x="1131.07" y="294" />
            </Array>
            <mxPoint x="1808.0140993788823" y="-470" as="sourcePoint" />
          </mxGeometry>
        </mxCell>
        <mxCell id="eam_SBuWEZHdjYL0IYUG-72" value="Coil 2 Temp Sensor" style="edgeLabel;html=1;align=center;verticalAlign=middle;resizable=0;points=[];fontSize=24;fontFamily=Verdana;labelBorderColor=none;" parent="eam_SBuWEZHdjYL0IYUG-68" vertex="1" connectable="0">
          <mxGeometry x="-0.2574" y="7" relative="1" as="geometry">
            <mxPoint x="-130" y="-7" as="offset" />
          </mxGeometry>
        </mxCell>
        <mxCell id="eam_SBuWEZHdjYL0IYUG-29" value="&lt;h1&gt;&lt;font style=&quot;font-size: 40px;&quot;&gt;AHU&lt;/font&gt;&lt;/h1&gt;" style="text;html=1;resizable=0;autosize=1;align=center;verticalAlign=middle;points=[];rounded=1;" parent="eam_SBuWEZHdjYL0IYUG-60" vertex="1">
          <mxGeometry x="42.004999999999995" width="110" height="90" as="geometry" />
        </mxCell>
        <mxCell id="eam_SBuWEZHdjYL0IYUG-65" value="" style="group" parent="1" vertex="1" connectable="0">
          <mxGeometry x="1869" y="147" width="675" height="370" as="geometry" />
        </mxCell>
        <mxCell id="eam_SBuWEZHdjYL0IYUG-1" value="" style="rounded=0;whiteSpace=wrap;html=1;" parent="eam_SBuWEZHdjYL0IYUG-65" vertex="1">
          <mxGeometry x="57.85714285714286" width="617.1428571428571" height="337.82608695652175" as="geometry" />
        </mxCell>
        <mxCell id="eam_SBuWEZHdjYL0IYUG-2" value="" style="rounded=1;whiteSpace=wrap;html=1;" parent="eam_SBuWEZHdjYL0IYUG-65" vertex="1">
          <mxGeometry x="77.14285714285714" y="16.086956521739133" width="96.42857142857143" height="32.173913043478265" as="geometry" />
        </mxCell>
        <mxCell id="eam_SBuWEZHdjYL0IYUG-3" value="" style="rounded=1;whiteSpace=wrap;html=1;" parent="eam_SBuWEZHdjYL0IYUG-65" vertex="1">
          <mxGeometry x="192.85714285714286" y="16.086956521739133" width="96.42857142857143" height="32.173913043478265" as="geometry" />
        </mxCell>
        <mxCell id="eam_SBuWEZHdjYL0IYUG-4" value="" style="rounded=0;whiteSpace=wrap;html=1;" parent="eam_SBuWEZHdjYL0IYUG-65" vertex="1">
          <mxGeometry y="193.04347826086956" width="57.85714285714286" height="32.173913043478265" as="geometry" />
        </mxCell>
        <mxCell id="eam_SBuWEZHdjYL0IYUG-6" value="" style="rounded=0;whiteSpace=wrap;html=1;" parent="eam_SBuWEZHdjYL0IYUG-65" vertex="1">
          <mxGeometry y="152.82608695652175" width="57.85714285714286" height="32.173913043478265" as="geometry" />
        </mxCell>
        <mxCell id="eam_SBuWEZHdjYL0IYUG-8" value="" style="rounded=0;whiteSpace=wrap;html=1;" parent="eam_SBuWEZHdjYL0IYUG-65" vertex="1">
          <mxGeometry y="289.5652173913044" width="57.85714285714286" height="32.173913043478265" as="geometry" />
        </mxCell>
        <mxCell id="eam_SBuWEZHdjYL0IYUG-10" value="" style="rounded=0;whiteSpace=wrap;html=1;" parent="eam_SBuWEZHdjYL0IYUG-65" vertex="1">
          <mxGeometry y="241.30434782608697" width="57.85714285714286" height="32.173913043478265" as="geometry" />
        </mxCell>
        <mxCell id="eam_SBuWEZHdjYL0IYUG-12" value="" style="whiteSpace=wrap;html=1;aspect=fixed;" parent="eam_SBuWEZHdjYL0IYUG-65" vertex="1">
          <mxGeometry x="77.14285714285714" y="337.82608695652175" width="32.173913043478265" height="32.173913043478265" as="geometry" />
        </mxCell>
        <mxCell id="eam_SBuWEZHdjYL0IYUG-13" value="" style="whiteSpace=wrap;html=1;aspect=fixed;" parent="eam_SBuWEZHdjYL0IYUG-65" vertex="1">
          <mxGeometry x="135" y="337.82608695652175" width="32.173913043478265" height="32.173913043478265" as="geometry" />
        </mxCell>
        <mxCell id="eam_SBuWEZHdjYL0IYUG-14" value="" style="whiteSpace=wrap;html=1;aspect=fixed;" parent="eam_SBuWEZHdjYL0IYUG-65" vertex="1">
          <mxGeometry x="270" y="337.82608695652175" width="32.173913043478265" height="32.173913043478265" as="geometry" />
        </mxCell>
        <mxCell id="eam_SBuWEZHdjYL0IYUG-16" value="" style="whiteSpace=wrap;html=1;aspect=fixed;" parent="eam_SBuWEZHdjYL0IYUG-65" vertex="1">
          <mxGeometry x="424.2857142857143" y="337.82608695652175" width="32.173913043478265" height="32.173913043478265" as="geometry" />
        </mxCell>
        <mxCell id="eam_SBuWEZHdjYL0IYUG-17" value="" style="whiteSpace=wrap;html=1;aspect=fixed;" parent="eam_SBuWEZHdjYL0IYUG-65" vertex="1">
          <mxGeometry x="482.14285714285717" y="337.82608695652175" width="32.173913043478265" height="32.173913043478265" as="geometry" />
        </mxCell>
        <mxCell id="eam_SBuWEZHdjYL0IYUG-18" value="" style="whiteSpace=wrap;html=1;aspect=fixed;" parent="eam_SBuWEZHdjYL0IYUG-65" vertex="1">
          <mxGeometry x="540" y="337.82608695652175" width="32.173913043478265" height="32.173913043478265" as="geometry" />
        </mxCell>
        <mxCell id="eam_SBuWEZHdjYL0IYUG-19" value="" style="whiteSpace=wrap;html=1;aspect=fixed;" parent="eam_SBuWEZHdjYL0IYUG-65" vertex="1">
          <mxGeometry x="597.8571428571429" y="337.82608695652175" width="32.173913043478265" height="32.173913043478265" as="geometry" />
        </mxCell>
        <mxCell id="eam_SBuWEZHdjYL0IYUG-73" value="" style="edgeStyle=orthogonalEdgeStyle;rounded=0;orthogonalLoop=1;jettySize=auto;html=1;fontFamily=Verdana;fontSize=40;endArrow=none;" parent="1" target="eam_SBuWEZHdjYL0IYUG-25" edge="1">
          <mxGeometry relative="1" as="geometry">
            <mxPoint x="2415" y="504" as="sourcePoint" />
            <mxPoint x="1533" y="1260" as="targetPoint" />
            <Array as="points">
              <mxPoint x="2415" y="501" />
              <mxPoint x="2425" y="501" />
              <mxPoint x="2425" y="966" />
              <mxPoint x="1470" y="966" />
              <mxPoint x="1470" y="1281" />
            </Array>
          </mxGeometry>
        </mxCell>
        <mxCell id="eam_SBuWEZHdjYL0IYUG-74" value="&lt;font style=&quot;font-size: 25px;&quot;&gt;Coil 1 Temp Sensor&lt;/font&gt;" style="edgeLabel;html=1;align=center;verticalAlign=middle;resizable=0;points=[];fontSize=25;fontFamily=Verdana;labelBorderColor=none;" parent="eam_SBuWEZHdjYL0IYUG-73" vertex="1" connectable="0">
          <mxGeometry x="-0.8197" y="4" relative="1" as="geometry">
            <mxPoint x="-222" y="255" as="offset" />
          </mxGeometry>
        </mxCell>
        <mxCell id="eam_SBuWEZHdjYL0IYUG-83" style="edgeStyle=orthogonalEdgeStyle;rounded=0;orthogonalLoop=1;jettySize=auto;html=1;entryX=0;entryY=0.75;entryDx=0;entryDy=0;" parent="1" target="eam_SBuWEZHdjYL0IYUG-48" edge="1">
          <mxGeometry relative="1" as="geometry">
            <mxPoint x="2373" y="501" as="sourcePoint" />
            <mxPoint x="1087" y="1055" as="targetPoint" />
            <Array as="points">
              <mxPoint x="2373" y="501" />
              <mxPoint x="2373" y="777" />
              <mxPoint x="1169" y="777" />
              <mxPoint x="1169" y="1082" />
            </Array>
          </mxGeometry>
        </mxCell>
        <mxCell id="c20texOX5Fc8MDbykexN-2" value="&lt;span style=&quot;font-size: 27px;&quot;&gt;Fresh Air Temp Sensor&lt;/span&gt;" style="edgeLabel;html=1;align=center;verticalAlign=middle;resizable=0;points=[];" vertex="1" connectable="0" parent="eam_SBuWEZHdjYL0IYUG-83">
          <mxGeometry x="-0.0981" y="6" relative="1" as="geometry">
            <mxPoint x="1" as="offset" />
          </mxGeometry>
        </mxCell>
      </root>
    </mxGraphModel>
  </diagram>
</mxfile>
